<svg width="49" height="13" viewBox="0 0 49 13" xmlns="http://www.w3.org/2000/svg">
  <title>Certified Used</title>
  <path d="M5.79357 10.1206C6.25535 9.74335 6.3351 9.27514 6.3351 8.85678V7.09361H3.82479V9.48571C3.82479 9.8275 3.54161 10.1051 3.19334 10.1051C2.84426 10.1051 2.58509 9.8279 2.58509 9.48571V2.70902C2.58509 2.36724 2.84426 2.09006 3.19334 2.09006C3.54121 2.09006 3.82479 2.36684 3.82479 2.70902V5.11588H6.33225V2.61929C6.33184 1.23978 5.41234 0.104753 3.17178 0.101562C0.871408 0.101562 0.00195312 1.24218 0.00195312 2.62168V9.69629C0.00195312 11.0638 1.10942 12.0988 2.52528 12.0984H3.3032L5.79357 10.1206ZM15.6916 10.3982V2.62368H13.9596V0.333275H20.2305V2.62368H18.4887V12.0852H17.7462L15.6916 10.3982Z" fill="currentcolor"/>
  <path d="M12.4511 0.34604H8.95213L6.91377 9.31026L10.7093 6.30796L14.6668 9.55832L12.4511 0.34604ZM10.0323 5.73327L10.7093 2.34531L11.3811 5.73327H10.0323ZM22.1343 0.706571C22.3296 0.706571 22.4964 0.77437 22.6343 0.910367C22.7714 1.04557 22.8402 1.20868 22.8402 1.40012C22.8402 1.59274 22.7714 1.75706 22.6343 1.89265C22.4968 2.02865 22.3304 2.09645 22.1343 2.09645C21.9382 2.09645 21.771 2.02865 21.6343 1.89265C21.5679 1.82845 21.5154 1.75168 21.4802 1.66701C21.4449 1.58235 21.4276 1.49155 21.4292 1.40012C21.4292 1.20908 21.498 1.04557 21.6351 0.910367C21.6996 0.84471 21.7773 0.792744 21.8631 0.757688C21.949 0.722633 22.0413 0.705234 22.1343 0.706571ZM22.9582 1.39852C22.9582 1.17678 22.878 0.987738 22.7177 0.8318C22.5574 0.675862 22.3638 0.597694 22.1363 0.597694C22.0288 0.596039 21.922 0.615952 21.8226 0.65621C21.7232 0.696468 21.6332 0.756221 21.5582 0.8318C21.4807 0.905117 21.4194 0.99324 21.378 1.09072C21.3367 1.1882 21.3161 1.29296 21.3177 1.39852C21.3177 1.62186 21.3971 1.81209 21.5558 1.96883C21.7156 2.12676 21.9089 2.20533 22.1363 2.20533C22.3638 2.20533 22.5574 2.12676 22.7177 1.96883C22.878 1.8113 22.9582 1.62106 22.9582 1.39852ZM22.354 1.22583C22.354 1.29323 22.3227 1.3391 22.2604 1.36302C22.2111 1.37812 22.1595 1.38474 22.1079 1.38257H21.9634V1.06471H22.1001C22.2779 1.06471 22.354 1.09821 22.354 1.22583ZM21.8043 1.83762H21.9634V1.49144H22.0891C22.1738 1.49144 22.2328 1.50062 22.2665 1.51976C22.3235 1.55246 22.3516 1.61946 22.3516 1.72076V1.79056L22.3552 1.81887C22.3557 1.82224 22.3563 1.82557 22.3573 1.82884L22.3597 1.83722H22.5074L22.5017 1.82645C22.4923 1.75746 22.4915 1.65097 22.4915 1.65097C22.4909 1.59651 22.4702 1.54411 22.4334 1.50332C22.3966 1.46254 22.346 1.4361 22.2909 1.42883C22.4504 1.40291 22.5074 1.33232 22.5074 1.21147C22.5074 1.1002 22.461 1.02563 22.3674 0.987339C22.3149 0.965803 22.2328 0.955434 22.1209 0.955434H21.8043V1.83762Z" fill="currentcolor"/>
  <path d="M16.8145 12.1015L10.7072 7.08643L4.37891 12.1015H16.8145Z" fill="#FFCD11"/>
  <path d="M29.2997 3.32897H30.0528C30.0383 3.65305 29.9719 3.92893 29.8536 4.15661C29.7353 4.38224 29.5652 4.55452 29.3433 4.67345C29.1233 4.79244 28.8546 4.85193 28.5373 4.85193C28.2966 4.85193 28.0808 4.80887 27.89 4.7227C27.7012 4.63654 27.5404 4.51246 27.4076 4.35041C27.2748 4.18633 27.1732 3.98637 27.1027 3.75045C27.0342 3.51459 27 3.24689 27 2.94744V2.15366C27 1.85421 27.0353 1.58652 27.1058 1.35065C27.1784 1.11478 27.2821 0.9148 27.417 0.75071C27.5518 0.586621 27.7157 0.462528 27.9087 0.378435C28.1037 0.292284 28.3236 0.249211 28.5684 0.249211C28.8816 0.249211 29.1451 0.308693 29.3588 0.427662C29.5725 0.546626 29.7374 0.720969 29.8536 0.950695C29.9698 1.18042 30.0372 1.4604 30.0559 1.79062H29.3028C29.2924 1.56704 29.2613 1.38862 29.2094 1.2553C29.1597 1.11993 29.0829 1.02249 28.9791 0.963003C28.8775 0.903521 28.7406 0.87378 28.5684 0.87378C28.4252 0.87378 28.3018 0.900444 28.1981 0.953771C28.0964 1.0071 28.0124 1.0871 27.946 1.19376C27.8817 1.29835 27.8329 1.43067 27.7997 1.59062C27.7686 1.74857 27.753 1.93418 27.753 2.14752V2.94744C27.753 3.15259 27.7665 3.33412 27.7935 3.492C27.8205 3.64995 27.864 3.78432 27.9242 3.89506C27.9844 4.00381 28.0643 4.08688 28.1639 4.14427C28.2634 4.19967 28.3879 4.22733 28.5373 4.22733C28.7157 4.22733 28.8578 4.19967 28.9636 4.14427C29.0715 4.08892 29.1513 3.99556 29.2032 3.86429C29.255 3.73302 29.2872 3.55459 29.2997 3.32897ZM31.9479 4.85193C31.7301 4.85193 31.5361 4.82011 31.366 4.75652C31.1958 4.69088 31.0517 4.59453 30.9334 4.46735C30.8152 4.33813 30.7249 4.18019 30.6627 3.99351C30.6004 3.8048 30.5694 3.58637 30.5694 3.33821V3.01822C30.5694 2.7372 30.6015 2.49518 30.6658 2.29214C30.7322 2.08703 30.8235 1.91879 30.9396 1.78752C31.0558 1.65625 31.1928 1.55885 31.3505 1.49527C31.5101 1.43167 31.6834 1.39991 31.8701 1.39991C32.0817 1.39991 32.2653 1.43372 32.4209 1.50141C32.5765 1.56909 32.7041 1.67064 32.8037 1.80601C32.9053 1.94138 32.98 2.10857 33.0278 2.30752C33.0775 2.50647 33.1024 2.73515 33.1024 2.99359V3.35359H30.9179V2.81207H32.3867V2.73515C32.3825 2.58339 32.3639 2.45312 32.3307 2.34443C32.2975 2.23369 32.2435 2.14957 32.1689 2.09212C32.0963 2.03263 31.9956 2.00292 31.867 2.00292C31.7736 2.00292 31.6907 2.02035 31.6181 2.05522C31.5454 2.09008 31.4853 2.14647 31.4376 2.22444C31.3919 2.30237 31.3567 2.40696 31.3318 2.53824C31.3069 2.66747 31.2944 2.82745 31.2944 3.01822V3.33821C31.2944 3.50434 31.3089 3.64486 31.338 3.7597C31.3691 3.87458 31.4148 3.96889 31.4749 4.04277C31.5351 4.11454 31.6077 4.16789 31.6927 4.20276C31.7799 4.23558 31.8805 4.25197 31.9946 4.25197C32.1627 4.25197 32.3068 4.22119 32.4271 4.15965C32.5496 4.09606 32.6554 4.01405 32.7446 3.91354L33.0651 4.35351C33.0049 4.43349 32.924 4.51246 32.8223 4.59038C32.7207 4.66631 32.5973 4.72885 32.4521 4.7781C32.3089 4.8273 32.1408 4.85193 31.9479 4.85193ZM34.4094 2.10447V4.79038H33.6844V1.46145H34.3752L34.4094 2.10447ZM35.2216 1.43987L35.2185 2.14752C35.177 2.13728 35.1325 2.13109 35.0847 2.12904C35.0391 2.12495 34.9934 2.1229 34.9478 2.1229C34.8482 2.1229 34.7621 2.14033 34.6895 2.1752C34.6169 2.21006 34.5557 2.26031 34.5059 2.32595C34.4561 2.39158 34.4167 2.47055 34.3877 2.56287C34.3607 2.65517 34.3441 2.75977 34.3379 2.87671L34.1823 2.88285C34.1823 2.67366 34.1988 2.4798 34.232 2.30138C34.2652 2.12085 34.315 1.96395 34.3814 1.83063C34.4499 1.69527 34.535 1.58962 34.6366 1.51375C34.7383 1.43782 34.8565 1.39991 34.9913 1.39991C35.0287 1.39991 35.0712 1.404 35.119 1.41219C35.1667 1.42038 35.2009 1.42962 35.2216 1.43987ZM37.235 1.46145V2.0152H35.5826V1.46145H37.235ZM36.0338 0.646103H36.7558V3.86124C36.7558 3.9638 36.7672 4.04172 36.79 4.09507C36.8129 4.14836 36.845 4.18428 36.8865 4.20276C36.928 4.22119 36.9768 4.23043 37.0328 4.23043C37.0743 4.23043 37.1147 4.22733 37.1541 4.22119C37.1956 4.213 37.2257 4.20581 37.2443 4.19967V4.7781C37.1905 4.79858 37.1282 4.81601 37.0577 4.8304C36.9871 4.84473 36.9021 4.85193 36.8025 4.85193C36.6552 4.85193 36.5235 4.82215 36.4073 4.76271C36.2911 4.70117 36.1998 4.60167 36.1334 4.46425C36.067 4.32479 36.0338 4.14017 36.0338 3.91045V0.646103ZM38.5669 1.46145V4.79038H37.8419V1.46145H38.5669ZM37.8046 0.587645C37.8046 0.472782 37.8398 0.377406 37.9103 0.301515C37.9808 0.225624 38.0794 0.187682 38.206 0.187682C38.3325 0.187682 38.4311 0.225624 38.5016 0.301515C38.5721 0.377406 38.6074 0.472782 38.6074 0.587645C38.6074 0.70046 38.5721 0.794807 38.5016 0.870703C38.4311 0.946594 38.3325 0.984536 38.206 0.984536C38.0794 0.984536 37.9808 0.946594 37.9103 0.870703C37.8398 0.794807 37.8046 0.70046 37.8046 0.587645ZM40.2349 4.79038H39.5099V1.2522C39.5099 0.981459 39.5576 0.753788 39.653 0.569188C39.7484 0.382536 39.8864 0.24101 40.0669 0.144604C40.2473 0.048203 40.4621 0 40.711 0C40.8563 0 40.9942 0.0174383 41.1249 0.052304C41.2578 0.087175 41.3946 0.131272 41.5357 0.184605L41.4237 0.803015C41.3407 0.766096 41.2432 0.732248 41.1311 0.701483C41.0212 0.670719 40.8978 0.655333 40.7609 0.655333C40.5741 0.655333 40.4393 0.705585 40.3563 0.806091C40.2753 0.904545 40.2349 1.05325 40.2349 1.2522V4.79038ZM40.7671 1.46145V2.0152H39.0867V1.46145H40.7671ZM41.8718 1.46145V4.79038H41.1468V1.46145H41.8718ZM43.9474 4.85193C43.7297 4.85193 43.5356 4.82011 43.3655 4.75652C43.1954 4.69088 43.0512 4.59453 42.933 4.46735C42.8147 4.33813 42.7244 4.18019 42.6622 3.99351C42.6 3.8048 42.5689 3.58637 42.5689 3.33821V3.01822C42.5689 2.7372 42.601 2.49518 42.6653 2.29214C42.7317 2.08703 42.8229 1.91879 42.9392 1.78752C43.0553 1.65625 43.1922 1.55885 43.35 1.49527C43.5097 1.43167 43.683 1.39991 43.8696 1.39991C44.0812 1.39991 44.2649 1.43372 44.4204 1.50141C44.5761 1.56909 44.7036 1.67064 44.8032 1.80601C44.9048 1.94138 44.9796 2.10857 45.0273 2.30752C45.0771 2.50647 45.1019 2.73515 45.1019 2.99359V3.35359H42.9174V2.81207H44.3862V2.73515C44.3821 2.58339 44.3634 2.45312 44.3302 2.34443C44.297 2.23369 44.2431 2.14957 44.1684 2.09212C44.0958 2.03263 43.9952 2.00292 43.8666 2.00292C43.7732 2.00292 43.6902 2.02035 43.6175 2.05522C43.5449 2.09008 43.4848 2.14647 43.4371 2.22444C43.3914 2.30237 43.3562 2.40696 43.3313 2.53824C43.3064 2.66747 43.294 2.82745 43.294 3.01822V3.33821C43.294 3.50434 43.3085 3.64486 43.3375 3.7597C43.3687 3.87458 43.4143 3.96889 43.4744 4.04277C43.5346 4.11454 43.6072 4.16789 43.6923 4.20276C43.7794 4.23558 43.88 4.25197 43.9941 4.25197C44.1622 4.25197 44.3063 4.22119 44.4267 4.15965C44.5491 4.09606 44.6549 4.01405 44.7441 3.91354L45.0646 4.35351C45.0045 4.43349 44.9235 4.51246 44.8219 4.59038C44.7202 4.66631 44.5968 4.72885 44.4515 4.7781C44.3084 4.8273 44.1404 4.85193 43.9474 4.85193ZM47.3767 4.09507V0.064612H48.1016V4.79038L47.4452 4.79349L47.3767 4.09507ZM45.5687 3.26128V2.99974C45.5687 2.72696 45.5936 2.49109 45.6434 2.29214C45.6932 2.09113 45.7658 1.92395 45.8613 1.79062C45.9588 1.6573 46.0759 1.55885 46.2129 1.49527C46.3498 1.43167 46.5044 1.39991 46.6766 1.39991C46.8446 1.39991 46.9898 1.43782 47.1123 1.51375C47.2347 1.58757 47.3384 1.69322 47.4234 1.83063C47.5084 1.96805 47.5759 2.13214 47.6258 2.3229C47.6778 2.51162 47.7129 2.72286 47.7314 2.95668V3.31972C47.7086 3.54535 47.6725 3.75251 47.6226 3.94122C47.5727 4.12789 47.5053 4.28887 47.4202 4.42425C47.3352 4.55961 47.2305 4.66525 47.1061 4.74114C46.9836 4.81501 46.8394 4.85193 46.6735 4.85193C46.5013 4.85193 46.3467 4.81806 46.2099 4.75038C46.0749 4.68269 45.9588 4.58219 45.8613 4.44887C45.7658 4.31555 45.6932 4.15041 45.6434 3.95351C45.5936 3.75455 45.5687 3.52383 45.5687 3.26128ZM46.2939 2.99974V3.26128C46.2939 3.43151 46.3042 3.57818 46.325 3.70126C46.3457 3.82434 46.3789 3.92583 46.4245 4.00586C46.4701 4.08378 46.5303 4.14222 46.605 4.18119C46.6797 4.21815 46.77 4.23657 46.8757 4.23657C47.0085 4.23657 47.1164 4.20376 47.1994 4.13813C47.2844 4.07249 47.3498 3.98427 47.3952 3.87353C47.443 3.76075 47.4766 3.63562 47.4952 3.4982V2.78131C47.4845 2.67261 47.4637 2.57211 47.4329 2.4798C47.4016 2.38544 47.3612 2.30342 47.3114 2.23369C47.2616 2.1639 47.2004 2.10956 47.1278 2.0706C47.0573 2.02959 46.9742 2.00906 46.8788 2.00906C46.7731 2.00906 46.6828 2.02959 46.6081 2.0706C46.5334 2.10956 46.4733 2.17011 46.4276 2.25212C46.382 2.33214 46.3478 2.43469 46.325 2.55982C46.3042 2.68285 46.2939 2.8295 46.2939 2.99974ZM29.169 7.66198H29.9252V10.7725C29.9252 11.115 29.8598 11.3909 29.7291 11.6001C29.6005 11.8093 29.4262 11.9622 29.2063 12.0585C28.9885 12.1549 28.7458 12.2031 28.4782 12.2031C28.2001 12.2031 27.9522 12.1549 27.7344 12.0585C27.5165 11.9622 27.3454 11.8093 27.2209 11.6001C27.0964 11.3909 27.0342 11.115 27.0342 10.7725V7.66198H27.7873V10.7725C27.7873 10.9858 27.8143 11.1509 27.8682 11.2677C27.9242 11.3848 28.003 11.4658 28.1047 11.5109C28.2084 11.556 28.3329 11.5785 28.4782 11.5785C28.6234 11.5785 28.7468 11.556 28.8484 11.5109C28.9522 11.4658 29.031 11.3848 29.0849 11.2677C29.141 11.1509 29.169 10.9858 29.169 10.7725V7.66198ZM32.2062 11.2647C32.2062 11.195 32.1854 11.1335 32.144 11.0801C32.1046 11.0247 32.0402 10.9704 31.951 10.9171C31.8618 10.8638 31.7425 10.8063 31.5932 10.7448C31.4376 10.6813 31.2996 10.6176 31.1793 10.554C31.0589 10.4904 30.9573 10.4207 30.8743 10.3448C30.7913 10.2669 30.7281 10.1777 30.6845 10.0772C30.6409 9.97666 30.6191 9.85973 30.6191 9.7264C30.6191 9.58899 30.645 9.46181 30.6969 9.34488C30.7488 9.22799 30.8235 9.12545 30.921 9.03723C31.0185 8.94697 31.1357 8.87723 31.2726 8.82804C31.4096 8.77674 31.5641 8.75111 31.7363 8.75111C31.9791 8.75111 32.1865 8.79522 32.3587 8.88338C32.5329 8.96955 32.6657 9.09058 32.757 9.24643C32.8504 9.40027 32.8971 9.5777 32.8971 9.7787H32.1719C32.1719 9.69459 32.1564 9.61871 32.1253 9.55103C32.0942 9.48129 32.0465 9.42589 31.9821 9.38489C31.9178 9.34183 31.8359 9.32031 31.7363 9.32031C31.645 9.32031 31.5683 9.33774 31.506 9.37261C31.4458 9.40542 31.4002 9.45053 31.3691 9.50797C31.34 9.56332 31.3255 9.62591 31.3255 9.69564C31.3255 9.74694 31.3349 9.79204 31.3535 9.831C31.3722 9.86997 31.4033 9.90792 31.4469 9.94484C31.4904 9.9797 31.5485 10.0156 31.6211 10.0525C31.6959 10.0895 31.7902 10.1315 31.9043 10.1787C32.1305 10.2648 32.3182 10.354 32.4676 10.4463C32.617 10.5386 32.729 10.6463 32.8037 10.7694C32.8784 10.8925 32.9157 11.0453 32.9157 11.2278C32.9157 11.3755 32.8877 11.5088 32.8317 11.6278C32.7778 11.7467 32.6989 11.8493 32.5952 11.9355C32.4935 12.0216 32.3701 12.0883 32.2248 12.1355C32.0817 12.1806 31.922 12.2031 31.7456 12.2031C31.4822 12.2031 31.2591 12.1518 31.0766 12.0493C30.8961 11.9447 30.7592 11.8103 30.6658 11.6462C30.5724 11.4822 30.5258 11.3089 30.5258 11.1263H31.226C31.2322 11.2575 31.2602 11.3601 31.31 11.434C31.3618 11.5078 31.4272 11.5591 31.506 11.5878C31.5849 11.6145 31.6668 11.6278 31.7519 11.6278C31.8535 11.6278 31.9375 11.6145 32.0039 11.5878C32.0703 11.5591 32.1201 11.517 32.1533 11.4617C32.1886 11.4063 32.2062 11.3407 32.2062 11.2647ZM34.8358 12.2031C34.6179 12.2031 34.424 12.1713 34.2539 12.1077C34.0837 12.0421 33.9396 11.9458 33.8213 11.8185C33.703 11.6893 33.6128 11.5314 33.5505 11.3448C33.4883 11.156 33.4572 10.9376 33.4572 10.6895V10.3694C33.4572 10.0884 33.4893 9.84638 33.5537 9.64334C33.62 9.43824 33.7113 9.27 33.8275 9.13873C33.9437 9.00746 34.0806 8.91005 34.2383 8.84647C34.398 8.78288 34.5712 8.75111 34.758 8.75111C34.9696 8.75111 35.1532 8.78493 35.3088 8.85261C35.4644 8.92029 35.592 9.02185 35.6915 9.15721C35.7932 9.29258 35.8679 9.45977 35.9156 9.65872C35.9654 9.85768 35.9903 10.0864 35.9903 10.3448V10.7048H33.8057V10.1633H35.2745V10.0864C35.2704 9.9346 35.2517 9.80433 35.2185 9.69564C35.1854 9.58489 35.1314 9.50078 35.0567 9.44333C34.9841 9.38384 34.8835 9.35412 34.7548 9.35412C34.6615 9.35412 34.5785 9.37156 34.5059 9.40642C34.4333 9.44129 34.3731 9.49768 34.3254 9.57565C34.2798 9.65357 34.2445 9.75817 34.2196 9.88944C34.1947 10.0186 34.1823 10.1787 34.1823 10.3694V10.6895C34.1823 10.8556 34.1968 10.9961 34.2258 11.1109C34.2569 11.2257 34.3026 11.3201 34.3627 11.394C34.4229 11.4658 34.4955 11.5191 34.5806 11.554C34.6677 11.5868 34.7683 11.6032 34.8825 11.6032C35.0505 11.6032 35.1947 11.5724 35.315 11.5109C35.4374 11.4473 35.5432 11.3653 35.6324 11.2647L35.953 11.7047C35.8928 11.7847 35.8119 11.8636 35.7102 11.9416C35.6085 12.0175 35.4851 12.0801 35.3399 12.1293C35.1967 12.1785 35.0287 12.2031 34.8358 12.2031ZM38.2651 11.4463V7.41582H38.9901V12.1416L38.3336 12.1447L38.2651 11.4463ZM36.4571 10.6124V10.3509C36.4571 10.0782 36.482 9.84229 36.5317 9.64334C36.5816 9.44234 36.6542 9.27515 36.7496 9.14183C36.8471 9.00851 36.9643 8.91005 37.1012 8.84647C37.2381 8.78288 37.3927 8.75111 37.5649 8.75111C37.7329 8.75111 37.8782 8.78902 38.0005 8.86495C38.1229 8.93877 38.2267 9.04442 38.3118 9.18184C38.3968 9.31926 38.4642 9.48334 38.514 9.6741C38.5659 9.86283 38.6011 10.0741 38.6199 10.3079V10.6709C38.597 10.8966 38.5607 11.1037 38.5109 11.2925C38.4611 11.4791 38.3937 11.6401 38.3087 11.7754C38.2237 11.9109 38.1188 12.0165 37.9943 12.0924C37.872 12.1662 37.7277 12.2031 37.5618 12.2031C37.3897 12.2031 37.235 12.1693 37.0981 12.1016C36.9633 12.0339 36.8471 11.9334 36.7496 11.8C36.6542 11.6667 36.5816 11.5016 36.5317 11.3048C36.482 11.1057 36.4571 10.875 36.4571 10.6124ZM37.1821 10.3509V10.6124C37.1821 10.7828 37.1925 10.9294 37.2132 11.0524C37.234 11.1755 37.2672 11.277 37.3128 11.3571C37.3586 11.435 37.4187 11.4934 37.4934 11.5324C37.568 11.5694 37.6582 11.5878 37.7641 11.5878C37.8968 11.5878 38.0047 11.555 38.0877 11.4893C38.1727 11.4237 38.2382 11.3355 38.2838 11.2247C38.3315 11.1119 38.3647 10.9868 38.3833 10.8494V10.1325C38.373 10.0238 38.3523 9.92332 38.3211 9.831C38.29 9.73665 38.2496 9.65462 38.1998 9.58489C38.1499 9.51511 38.0887 9.46076 38.0161 9.4218C37.9456 9.3808 37.8627 9.36026 37.7672 9.36026C37.6614 9.36026 37.5711 9.3808 37.4964 9.4218C37.4218 9.46076 37.3616 9.52131 37.3159 9.60332C37.2703 9.68335 37.2361 9.78589 37.2132 9.91102C37.1925 10.034 37.1821 10.1807 37.1821 10.3509Z" fill="currentcolor"/>
</svg>
