<svg width="17" height="16" viewBox="0 0 17 16" xmlns="http://www.w3.org/2000/svg">
  <path fill-rule="evenodd" clip-rule="evenodd" d="M14.1062 2.00353C13.8848 2.03102 13.6784 2.13338 13.5302 2.28928C13.5082 2.31242 11.7826 4.39797 9.69568 6.92385C7.60871 9.44972 5.89713 11.5207 5.89217 11.5259C5.88361 11.535 5.82349 11.4588 4.7 10.0138C3.65101 8.66457 3.50952 8.48474 3.45225 8.428C3.31098 8.28798 3.14669 8.20291 2.94642 8.16606C2.88229 8.15426 2.7522 8.15053 2.6801 8.15843C2.21189 8.20975 1.85194 8.59747 1.83446 9.06932C1.83057 9.17427 1.83774 9.24403 1.86232 9.3401C1.88992 9.44801 1.92757 9.53406 1.98602 9.6228C2.02112 9.6761 4.44864 12.7997 4.50432 12.8632C4.74647 13.1394 5.07264 13.3391 5.43057 13.4302C5.575 13.4669 5.68245 13.4815 5.83862 13.4855C6.27989 13.4969 6.69949 13.352 7.04881 13.0674C7.19008 12.9523 7.02462 13.1504 11.1226 8.19063C13.2467 5.61985 14.9917 3.50335 15.0102 3.47543C15.1224 3.30557 15.1737 3.12074 15.1661 2.91394C15.1542 2.59453 14.988 2.30962 14.7139 2.13915C14.6186 2.07987 14.4912 2.03139 14.3783 2.01145C14.3184 2.00088 14.1638 1.99639 14.1062 2.00353Z" fill="currentcolor"></path>
</svg>
