<svg width="16" height="16" viewBox="0 0 16 16" xmlns="http://www.w3.org/2000/svg">
  <path fill-rule="evenodd" clip-rule="evenodd" d="M1.54977 4.69112C1.74503 4.49586 2.06161 4.49586 2.25687 4.69112L7.99999 10.4342L13.7431 4.69112C13.9384 4.49586 14.2549 4.49586 14.4502 4.69112C14.6455 4.88639 14.6455 5.20297 14.4502 5.39823L8.68639 11.162C8.5988 11.2535 8.49378 11.3266 8.37749 11.377C8.25832 11.4286 8.12985 11.4552 7.99999 11.4552C7.87013 11.4552 7.74165 11.4286 7.62248 11.377C7.50619 11.3266 7.40117 11.2535 7.31358 11.162L1.54977 5.39823C1.3545 5.20297 1.3545 4.88639 1.54977 4.69112Z" fill="currentcolor"/>
</svg>
