<svg width="16" height="16" viewBox="0 0 16 16" xmlns="http://www.w3.org/2000/svg">
  <path d="M1.89464 1.89513C1.99601 1.79376 2.13349 1.73682 2.27684 1.73682H6.95915C7.23529 1.73682 7.45915 1.51296 7.45915 1.23682C7.45915 0.960674 7.23529 0.736816 6.95915 0.736816H2.27684C1.86827 0.736816 1.47644 0.89912 1.18753 1.18802C0.898632 1.47692 0.736328 1.86876 0.736328 2.27733V13.723C0.736328 14.1315 0.898632 14.5234 1.18753 14.8123C1.47644 15.1012 1.86827 15.2635 2.27684 15.2635H13.7225C14.1311 15.2635 14.5229 15.1012 14.8118 14.8123C15.1007 14.5234 15.263 14.1315 15.263 13.723V9.04066C15.263 8.76452 15.0391 8.54066 14.763 8.54066C14.4869 8.54066 14.263 8.76452 14.263 9.04066V13.723C14.263 13.8663 14.206 14.0038 14.1047 14.1052C14.0033 14.2065 13.8658 14.2635 13.7225 14.2635H2.27684C2.13349 14.2635 1.99601 14.2065 1.89464 14.1052C1.79327 14.0038 1.73633 13.8663 1.73633 13.723V2.27733C1.73633 2.13398 1.79327 1.99649 1.89464 1.89513Z" fill="currentcolor"/>
  <path d="M15.1578 0.929431C15.1333 0.898118 15.1052 0.869788 15.0741 0.845086C14.9888 0.777305 14.8808 0.736816 14.7634 0.736816H11.1216C10.8454 0.736816 10.6216 0.960674 10.6216 1.23682C10.6216 1.51296 10.8454 1.73682 11.1216 1.73682H13.5562L7.64645 7.6466C7.45118 7.84186 7.45118 8.15844 7.64645 8.3537C7.84171 8.54897 8.15829 8.54897 8.35355 8.3537L14.2634 2.44388V4.87861C14.2634 5.15475 14.4872 5.37861 14.7634 5.37861C15.0395 5.37861 15.2634 5.15475 15.2634 4.87861V1.23682C15.2634 1.15068 15.2416 1.06962 15.2032 0.998865C15.2005 0.993791 15.1976 0.988754 15.1947 0.983757C15.1862 0.969203 15.1768 0.95499 15.1667 0.941179C15.1638 0.93723 15.1608 0.933313 15.1578 0.929431Z" fill="currentcolor"/>
</svg>
