<svg width="54" height="40" viewBox="0 0 54 40" xmlns="http://www.w3.org/2000/svg">
  <path d="M24.0084 30.3487C24.0084 33.327 22.9547 35.6645 20.885 37.3987C18.7777 39.1329 16.1436 40 12.9449 40C9.74634 40 5.87038 38.8313 3.49965 36.4939C1.16655 34.1565 0 30.688 0 26.1263C0 21.5646 0.639721 18.2846 1.95679 15.1932C3.23624 12.1018 4.81672 9.53817 6.66063 7.50236C8.50453 5.46654 10.4613 3.84543 12.5686 2.60132C14.676 1.35721 16.5199 0.490104 18.1003 0L23.1052 7.42696C20.1324 8.78417 17.7617 10.5938 15.8801 12.7804C14.0362 15.0047 13.246 17.7191 13.4718 20.9237C16.6704 20.3205 19.2293 20.9237 21.1484 22.771C23.0676 24.6183 24.0084 27.1442 24.0084 30.3487ZM53.9624 30.3487C53.9624 33.327 52.9087 35.6645 50.8014 37.3987C48.6941 39.1329 46.0599 40 42.8613 40C39.6627 40 35.7868 38.8313 33.416 36.4939C31.0829 34.1565 29.9164 30.688 29.9164 26.1263C29.9164 21.5646 30.5561 18.2846 31.8732 15.1932C33.1526 12.1018 34.7331 9.53817 36.577 7.50236C38.4209 5.46654 40.3777 3.84543 42.485 2.60132C44.5923 1.35721 46.4362 0.490104 48.0167 0L53.0216 7.42696C50.0488 8.78417 47.678 10.5938 45.7965 12.7804C43.9526 15.0047 43.1624 17.7191 43.3882 20.9237C46.5868 20.3205 49.1456 20.9237 51.0648 22.771C52.984 24.6183 53.9247 27.1442 53.9247 30.3487H53.9624Z" fill="currentcolor"/>
</svg>
