<svg width="16" height="16" viewBox="0 0 16 16" xmlns="http://www.w3.org/2000/svg">
  <path fill-rule="evenodd" clip-rule="evenodd" d="M10.7977 11.7404C9.72956 12.602 8.3709 13.1178 6.89177 13.1178C3.45338 13.1178 0.666016 10.3304 0.666016 6.89202C0.666016 3.45363 3.45338 0.66626 6.89177 0.66626C10.3302 0.66626 13.1175 3.45363 13.1175 6.89202C13.1175 8.37098 12.6018 9.7295 11.7404 10.7975L15.138 14.1951C15.3983 14.4554 15.3983 14.8775 15.138 15.1379C14.8776 15.3982 14.4555 15.3982 14.1951 15.1379L10.7977 11.7404ZM1.99935 6.89202C1.99935 4.19001 4.18976 1.99959 6.89177 1.99959C9.59379 1.99959 11.7842 4.19001 11.7842 6.89202C11.7842 8.21967 11.2554 9.4238 10.3969 10.3053C10.3804 10.3189 10.3643 10.3334 10.3489 10.3488C10.3335 10.3643 10.3189 10.3803 10.3053 10.3968C9.42382 11.2555 8.21957 11.7844 6.89177 11.7844C4.18976 11.7844 1.99935 9.59403 1.99935 6.89202Z" fill="currentcolor"/>
</svg>
